<?xml version="1.0" encoding="UTF-8" standalone="no"?>
<!-- Created with Inkscape (http://www.inkscape.org/) -->

<svg
   xmlns:dc="http://purl.org/dc/elements/1.1/"
   xmlns:cc="http://creativecommons.org/ns#"
   xmlns:rdf="http://www.w3.org/1999/02/22-rdf-syntax-ns#"
   xmlns:svg="http://www.w3.org/2000/svg"
   xmlns="http://www.w3.org/2000/svg"
   xmlns:sodipodi="http://sodipodi.sourceforge.net/DTD/sodipodi-0.dtd"
   xmlns:inkscape="http://www.inkscape.org/namespaces/inkscape"
   id="svg3036"
   version="1.1"
   inkscape:version="0.48.4 r9939"
   width="443"
   height="399"
   sodipodi:docname="pixel_journal.png">
  <metadata
     id="metadata3042">
    <rdf:RDF>
      <cc:Work
         rdf:about="">
        <dc:format>image/svg+xml</dc:format>
        <dc:type
           rdf:resource="http://purl.org/dc/dcmitype/StillImage" />
        <dc:title></dc:title>
      </cc:Work>
    </rdf:RDF>
  </metadata>
  <defs
     id="defs3040" />
  <sodipodi:namedview
     pagecolor="#ffffff"
     bordercolor="#666666"
     borderopacity="1"
     objecttolerance="10"
     gridtolerance="10"
     guidetolerance="10"
     inkscape:pageopacity="0"
     inkscape:pageshadow="2"
     inkscape:window-width="1301"
     inkscape:window-height="744"
     id="namedview3038"
     showgrid="false"
     inkscape:zoom="1.4962406"
     inkscape:cx="221.5"
     inkscape:cy="172.76633"
     inkscape:window-x="65"
     inkscape:window-y="24"
     inkscape:window-maximized="1"
     inkscape:current-layer="svg3036" />
  <g
     id="g3046"
     transform="translate(10.693464,12.698493)">
    <path
       style="fill:#fee87e"
       d="m 71.336683,337.33668 0,-6 -6,0 -6,0 0,-6 0,-6 -6,0 -6,0 0,-126 0,-125.999997 6,0 6,0 0,-6 0,-6 6,0 6,0 0,-6 0,-6 12,0 12,0 0,-6 0,-6 77.999997,0 78,0 0,6 0,6 6,0 6,0 0,6 0,6 6,0 6,0 0,6 0,6 6,0 6,0 0,41.999997 0,42 6,0 6,0 0,12 0,12 -6,0 -6,0 0,78 0,78 -12,0 -12,0 0,6 0,6 -6,0 -6,0 0,-6 0,-6 -6,0 -6,0 0,6 0,6 -84,0 -83.999997,0 0,-6 z m 191.999997,-12 0,-6 6,0 6,0 0,-72 0,-72 -6,0 -6,0 0,72 0,72 -6,0 -6,0 0,6 0,6 6,0 6,0 0,-6 z m 12,-216 0,-41.999997 -6,0 -6,0 0,-6 0,-6 -6,0 -6,0 0,-6 0,-6 -6,0 -6,0 0,6 0,6 6,0 6,0 0,6 0,6 6,0 6,0 0,41.999997 0,42 6,0 6,0 0,-42 z m 60,78 0,-155.999997 12,0 12,0 0,155.999997 0,156 -12,0 -12,0 0,-156 z"
       id="path3060"
       inkscape:connector-curvature="0" />
    <path
       style="fill:#fe7e7e"
       d="m 71.336683,337.33668 0,-6 -6,0 -6,0 0,-6 0,-6 -6,0 -6,0 0,-126 0,-125.999997 6,0 6,0 0,-6 0,-6 6,0 6,0 0,-6 0,-6 12,0 12,0 0,-6 0,-6 77.999997,0 78,0 0,6 0,6 6,0 6,0 0,6 0,6 6,0 6,0 0,6 0,6 6,0 6,0 0,41.999997 0,42 6,0 6,0 0,12 0,12 -6,0 -6,0 0,72 0,72 -6,0 -6,0 0,6 0,6 -6,0 -6,0 0,6 0,6 -6,0 -6,0 0,-6 0,-6 -6,0 -6,0 0,6 0,6 -84,0 -83.999997,0 0,-6 z m 191.999997,-12 0,-6 6,0 6,0 0,-72 0,-72 -6,0 -6,0 0,72 0,72 -6,0 -6,0 0,6 0,6 6,0 6,0 0,-6 z m 12,-216 0,-41.999997 -6,0 -6,0 0,-6 0,-6 -6,0 -6,0 0,-6 0,-6 -6,0 -6,0 0,6 0,6 6,0 6,0 0,6 0,6 6,0 6,0 0,41.999997 0,42 6,0 6,0 0,-42 z m 60,228 0,-6 12,0 12,0 0,6 0,6 -12,0 -12,0 0,-6 z m 0,-168 0,-137.999997 12,0 12,0 0,137.999997 0,138 -12,0 -12,0 0,-138 z"
       id="path3058"
       inkscape:connector-curvature="0" />
    <path
       style="fill:#fed700"
       d="m 71.336683,337.33668 0,-6 -6,0 -6,0 0,-6 0,-6 -6,0 -6,0 0,-126 0,-125.999997 6,0 6,0 0,-6 0,-6 6,0 6,0 0,-6 0,-6 12,0 12,0 0,-6 0,-6 77.999997,0 78,0 0,6 0,6 6,0 6,0 0,6 0,6 6,0 6,0 0,6 0,6 6,0 6,0 0,41.999997 0,42 6,0 6,0 0,12 0,12 -6,0 -6,0 0,72 0,72 -6,0 -6,0 0,6 0,6 -6,0 -6,0 0,6 0,6 -6,0 -6,0 0,-6 0,-6 -6,0 -6,0 0,6 0,6 -84,0 -83.999997,0 0,-6 z m 191.999997,-12 0,-6 6,0 6,0 0,-72 0,-72 -6,0 -6,0 0,72 0,72 -6,0 -6,0 0,6 0,6 6,0 6,0 0,-6 z m 12,-216 0,-41.999997 -6,0 -6,0 0,-6 0,-6 -6,0 -6,0 0,-6 0,-6 -6,0 -6,0 0,6 0,6 6,0 6,0 0,6 0,6 6,0 6,0 0,41.999997 0,42 6,0 6,0 0,-42 z m 60,228 0,-6 12,0 12,0 0,6 0,6 -12,0 -12,0 0,-6 z m 0,-156 0,-125.999997 12,0 12,0 0,125.999997 0,126 -12,0 -12,0 0,-126 z"
       id="path3056"
       inkscape:connector-curvature="0" />
    <path
       style="fill:#7f7f7f"
       d="m 71.336683,337.33668 0,-6 -6,0 -6,0 0,-6 0,-6 -6,0 -6,0 0,-126 0,-125.999997 6,0 6,0 0,-6 0,-6 6,0 6,0 0,-6 0,-6 12,0 12,0 0,-6 0,-6 77.999997,0 78,0 0,6 0,6 6,0 6,0 0,6 0,6 6,0 6,0 0,6 0,6 6,0 6,0 0,41.999997 0,42 6,0 6,0 0,12 0,12 -6,0 -6,0 0,72 0,72 -6,0 -6,0 0,6 0,6 -6,0 -6,0 0,6 0,6 -6,0 -6,0 0,-6 0,-6 -6,0 -6,0 0,6 0,6 -84,0 -83.999997,0 0,-6 z m 191.999997,-12 0,-6 6,0 6,0 0,-72 0,-72 -6,0 -6,0 0,72 0,72 -6,0 -6,0 0,6 0,6 6,0 6,0 0,-6 z m 12,-216 0,-41.999997 -6,0 -6,0 0,-6 0,-6 -6,0 -6,0 0,-6 0,-6 -6,0 -6,0 0,6 0,6 6,0 6,0 0,6 0,6 6,0 6,0 0,41.999997 0,42 6,0 6,0 0,-42 z m 60,228 0,-6 12,0 12,0 0,6 0,6 -12,0 -12,0 0,-6 z m 12,-239.999997 0,-18 -6,0 -6,0 0,-12 0,-12 12,0 12,0 0,30 0,29.999997 -6,0 -6,0 0,-17.999997 z"
       id="path3054"
       inkscape:connector-curvature="0" />
    <path
       style="fill:#7e6900"
       d="m 71.336683,337.33668 0,-6 -6,0 -6,0 0,-6 0,-6 -6,0 -6,0 0,-126 0,-125.999997 6,0 6,0 0,-6 0,-6 6,0 6,0 0,-6 0,-6 83.999997,0 84,0 0,6 0,6 6,0 6,0 0,6 0,6 6,0 6,0 0,41.999997 0,42 18,0 18,0 0,12 0,12 -18,0 -18,0 0,72 0,72 -6,0 -6,0 0,6 0,6 -6,0 -6,0 0,6 0,6 -84,0 -83.999997,0 0,-6 z m 263.999997,0 0,-6 12,0 12,0 0,6 0,6 -12,0 -12,0 0,-6 z m 12,-239.999997 0,-18 6,0 6,0 0,18 0,17.999997 -6,0 -6,0 0,-17.999997 z"
       id="path3052"
       inkscape:connector-curvature="0" />
    <path
       style="fill:#7e3200"
       d="m 71.336683,337.33668 0,-6 -6,0 -6,0 0,-6 0,-6 -6,0 -6,0 0,-126 0,-125.999997 6,0 6,0 0,-6 0,-6 6,0 6,0 0,-6 0,-6 83.999997,0 84,0 0,6 0,6 6,0 6,0 0,6 0,6 6,0 6,0 0,41.999997 0,42 -6,0 -6,0 0,12 0,12 6,0 6,0 0,72 0,72 -6,0 -6,0 0,6 0,6 -6,0 -6,0 0,6 0,6 -84,0 -83.999997,0 0,-6 z m 263.999997,0 0,-6 12,0 12,0 0,6 0,6 -12,0 -12,0 0,-6 z"
       id="path3050"
       inkscape:connector-curvature="0" />
    <path
       style="fill:#7e0000"
       d="m 71.336683,337.33668 0,-6 -6,0 -6,0 0,-6 0,-6 -6,0 -6,0 0,-126 0,-125.999997 6,0 6,0 0,-6 0,-6 6,0 6,0 0,-6 0,-6 83.999997,0 84,0 0,6 0,6 6,0 6,0 0,6 0,6 6,0 6,0 0,41.999997 0,42 -6,0 -6,0 0,12 0,12 6,0 6,0 0,72 0,72 -6,0 -6,0 0,6 0,6 -6,0 -6,0 0,6 0,6 -84,0 -83.999997,0 0,-6 z m 0,-144 0,-113.999997 -6,0 -6,0 0,113.999997 0,114 6,0 6,0 0,-114 z m 263.999997,144 0,-6 12,0 12,0 0,6 0,6 -12,0 -12,0 0,-6 z"
       id="path3048"
       inkscape:connector-curvature="0" />
  </g>
</svg>
